%TF.GenerationSoftware,KiCad,Pcbnew,9.0.7-9.0.7~ubuntu24.04.1*%
%TF.CreationDate,2026-03-21T18:46:25-07:00*%
%TF.ProjectId,shot-detector,73686f74-2d64-4657-9465-63746f722e6b,rev?*%
%TF.SameCoordinates,Original*%
%TF.FileFunction,Legend,Bot*%
%TF.FilePolarity,Positive*%
%FSLAX46Y46*%
G04 Gerber Fmt 4.6, Leading zero omitted, Abs format (unit mm)*
G04 Created by KiCad (PCBNEW 9.0.7-9.0.7~ubuntu24.04.1) date 2026-03-21 18:46:25*
%MOMM*%
%LPD*%
G01*
G04 APERTURE LIST*
%ADD10C,0.300000*%
%ADD11C,0.150000*%
%ADD12C,0.100000*%
%ADD13C,0.120000*%
G04 APERTURE END LIST*
D10*
X54138346Y-79250828D02*
X53781203Y-80250828D01*
X53781203Y-80250828D02*
X53424060Y-79250828D01*
X52066917Y-80250828D02*
X52924060Y-80250828D01*
X52495489Y-80250828D02*
X52495489Y-78750828D01*
X52495489Y-78750828D02*
X52638346Y-78965114D01*
X52638346Y-78965114D02*
X52781203Y-79107971D01*
X52781203Y-79107971D02*
X52924060Y-79179400D01*
D11*
X53241666Y-82984580D02*
X53289285Y-83032200D01*
X53289285Y-83032200D02*
X53432142Y-83079819D01*
X53432142Y-83079819D02*
X53527380Y-83079819D01*
X53527380Y-83079819D02*
X53670237Y-83032200D01*
X53670237Y-83032200D02*
X53765475Y-82936961D01*
X53765475Y-82936961D02*
X53813094Y-82841723D01*
X53813094Y-82841723D02*
X53860713Y-82651247D01*
X53860713Y-82651247D02*
X53860713Y-82508390D01*
X53860713Y-82508390D02*
X53813094Y-82317914D01*
X53813094Y-82317914D02*
X53765475Y-82222676D01*
X53765475Y-82222676D02*
X53670237Y-82127438D01*
X53670237Y-82127438D02*
X53527380Y-82079819D01*
X53527380Y-82079819D02*
X53432142Y-82079819D01*
X53432142Y-82079819D02*
X53289285Y-82127438D01*
X53289285Y-82127438D02*
X53241666Y-82175057D01*
X52289285Y-83079819D02*
X52860713Y-83079819D01*
X52574999Y-83079819D02*
X52574999Y-82079819D01*
X52574999Y-82079819D02*
X52670237Y-82222676D01*
X52670237Y-82222676D02*
X52765475Y-82317914D01*
X52765475Y-82317914D02*
X52860713Y-82365533D01*
X55841666Y-83079819D02*
X56174999Y-82603628D01*
X56413094Y-83079819D02*
X56413094Y-82079819D01*
X56413094Y-82079819D02*
X56032142Y-82079819D01*
X56032142Y-82079819D02*
X55936904Y-82127438D01*
X55936904Y-82127438D02*
X55889285Y-82175057D01*
X55889285Y-82175057D02*
X55841666Y-82270295D01*
X55841666Y-82270295D02*
X55841666Y-82413152D01*
X55841666Y-82413152D02*
X55889285Y-82508390D01*
X55889285Y-82508390D02*
X55936904Y-82556009D01*
X55936904Y-82556009D02*
X56032142Y-82603628D01*
X56032142Y-82603628D02*
X56413094Y-82603628D01*
X55460713Y-82175057D02*
X55413094Y-82127438D01*
X55413094Y-82127438D02*
X55317856Y-82079819D01*
X55317856Y-82079819D02*
X55079761Y-82079819D01*
X55079761Y-82079819D02*
X54984523Y-82127438D01*
X54984523Y-82127438D02*
X54936904Y-82175057D01*
X54936904Y-82175057D02*
X54889285Y-82270295D01*
X54889285Y-82270295D02*
X54889285Y-82365533D01*
X54889285Y-82365533D02*
X54936904Y-82508390D01*
X54936904Y-82508390D02*
X55508332Y-83079819D01*
X55508332Y-83079819D02*
X54889285Y-83079819D01*
D12*
X65633333Y-90482419D02*
X65633333Y-91196704D01*
X65633333Y-91196704D02*
X65680952Y-91339561D01*
X65680952Y-91339561D02*
X65776190Y-91434800D01*
X65776190Y-91434800D02*
X65919047Y-91482419D01*
X65919047Y-91482419D02*
X66014285Y-91482419D01*
X65204761Y-90577657D02*
X65157142Y-90530038D01*
X65157142Y-90530038D02*
X65061904Y-90482419D01*
X65061904Y-90482419D02*
X64823809Y-90482419D01*
X64823809Y-90482419D02*
X64728571Y-90530038D01*
X64728571Y-90530038D02*
X64680952Y-90577657D01*
X64680952Y-90577657D02*
X64633333Y-90672895D01*
X64633333Y-90672895D02*
X64633333Y-90768133D01*
X64633333Y-90768133D02*
X64680952Y-90910990D01*
X64680952Y-90910990D02*
X65252380Y-91482419D01*
X65252380Y-91482419D02*
X64633333Y-91482419D01*
D13*
%TO.C,C1*%
X52090000Y-86311252D02*
X52090000Y-84888748D01*
X53910000Y-86311252D02*
X53910000Y-84888748D01*
%TO.C,R2*%
X56535000Y-86339564D02*
X56535000Y-84885436D01*
X54715000Y-86339564D02*
X54715000Y-84885436D01*
D12*
%TO.C,J2*%
X64100000Y-91600000D02*
X64100000Y-88600000D01*
X63600000Y-88100000D02*
X64100000Y-88600000D01*
X63600000Y-88100000D02*
X54100000Y-88100000D01*
X54100000Y-88100000D02*
X54100000Y-91600000D01*
%TD*%
M02*
