%TF.GenerationSoftware,KiCad,Pcbnew,9.0.7-9.0.7~ubuntu24.04.1*%
%TF.CreationDate,2026-03-21T18:46:25-07:00*%
%TF.ProjectId,shot-detector,73686f74-2d64-4657-9465-63746f722e6b,rev?*%
%TF.SameCoordinates,Original*%
%TF.FileFunction,Legend,Top*%
%TF.FilePolarity,Positive*%
%FSLAX46Y46*%
G04 Gerber Fmt 4.6, Leading zero omitted, Abs format (unit mm)*
G04 Created by KiCad (PCBNEW 9.0.7-9.0.7~ubuntu24.04.1) date 2026-03-21 18:46:25*
%MOMM*%
%LPD*%
G01*
G04 APERTURE LIST*
%ADD10C,0.150000*%
%ADD11C,0.120000*%
G04 APERTURE END LIST*
D10*
X64411905Y-85004819D02*
X64411905Y-84004819D01*
X64411905Y-84004819D02*
X64650000Y-84004819D01*
X64650000Y-84004819D02*
X64792857Y-84052438D01*
X64792857Y-84052438D02*
X64888095Y-84147676D01*
X64888095Y-84147676D02*
X64935714Y-84242914D01*
X64935714Y-84242914D02*
X64983333Y-84433390D01*
X64983333Y-84433390D02*
X64983333Y-84576247D01*
X64983333Y-84576247D02*
X64935714Y-84766723D01*
X64935714Y-84766723D02*
X64888095Y-84861961D01*
X64888095Y-84861961D02*
X64792857Y-84957200D01*
X64792857Y-84957200D02*
X64650000Y-85004819D01*
X64650000Y-85004819D02*
X64411905Y-85004819D01*
X65364286Y-84100057D02*
X65411905Y-84052438D01*
X65411905Y-84052438D02*
X65507143Y-84004819D01*
X65507143Y-84004819D02*
X65745238Y-84004819D01*
X65745238Y-84004819D02*
X65840476Y-84052438D01*
X65840476Y-84052438D02*
X65888095Y-84100057D01*
X65888095Y-84100057D02*
X65935714Y-84195295D01*
X65935714Y-84195295D02*
X65935714Y-84290533D01*
X65935714Y-84290533D02*
X65888095Y-84433390D01*
X65888095Y-84433390D02*
X65316667Y-85004819D01*
X65316667Y-85004819D02*
X65935714Y-85004819D01*
X62611905Y-80679819D02*
X62611905Y-79679819D01*
X62611905Y-79679819D02*
X62850000Y-79679819D01*
X62850000Y-79679819D02*
X62992857Y-79727438D01*
X62992857Y-79727438D02*
X63088095Y-79822676D01*
X63088095Y-79822676D02*
X63135714Y-79917914D01*
X63135714Y-79917914D02*
X63183333Y-80108390D01*
X63183333Y-80108390D02*
X63183333Y-80251247D01*
X63183333Y-80251247D02*
X63135714Y-80441723D01*
X63135714Y-80441723D02*
X63088095Y-80536961D01*
X63088095Y-80536961D02*
X62992857Y-80632200D01*
X62992857Y-80632200D02*
X62850000Y-80679819D01*
X62850000Y-80679819D02*
X62611905Y-80679819D01*
X64135714Y-80679819D02*
X63564286Y-80679819D01*
X63850000Y-80679819D02*
X63850000Y-79679819D01*
X63850000Y-79679819D02*
X63754762Y-79822676D01*
X63754762Y-79822676D02*
X63659524Y-79917914D01*
X63659524Y-79917914D02*
X63564286Y-79965533D01*
X64313095Y-86804819D02*
X64313095Y-87614342D01*
X64313095Y-87614342D02*
X64360714Y-87709580D01*
X64360714Y-87709580D02*
X64408333Y-87757200D01*
X64408333Y-87757200D02*
X64503571Y-87804819D01*
X64503571Y-87804819D02*
X64694047Y-87804819D01*
X64694047Y-87804819D02*
X64789285Y-87757200D01*
X64789285Y-87757200D02*
X64836904Y-87709580D01*
X64836904Y-87709580D02*
X64884523Y-87614342D01*
X64884523Y-87614342D02*
X64884523Y-86804819D01*
X65884523Y-87804819D02*
X65313095Y-87804819D01*
X65598809Y-87804819D02*
X65598809Y-86804819D01*
X65598809Y-86804819D02*
X65503571Y-86947676D01*
X65503571Y-86947676D02*
X65408333Y-87042914D01*
X65408333Y-87042914D02*
X65313095Y-87090533D01*
X67541666Y-77139819D02*
X67541666Y-77854104D01*
X67541666Y-77854104D02*
X67494047Y-77996961D01*
X67494047Y-77996961D02*
X67398809Y-78092200D01*
X67398809Y-78092200D02*
X67255952Y-78139819D01*
X67255952Y-78139819D02*
X67160714Y-78139819D01*
X67922619Y-77139819D02*
X68541666Y-77139819D01*
X68541666Y-77139819D02*
X68208333Y-77520771D01*
X68208333Y-77520771D02*
X68351190Y-77520771D01*
X68351190Y-77520771D02*
X68446428Y-77568390D01*
X68446428Y-77568390D02*
X68494047Y-77616009D01*
X68494047Y-77616009D02*
X68541666Y-77711247D01*
X68541666Y-77711247D02*
X68541666Y-77949342D01*
X68541666Y-77949342D02*
X68494047Y-78044580D01*
X68494047Y-78044580D02*
X68446428Y-78092200D01*
X68446428Y-78092200D02*
X68351190Y-78139819D01*
X68351190Y-78139819D02*
X68065476Y-78139819D01*
X68065476Y-78139819D02*
X67970238Y-78092200D01*
X67970238Y-78092200D02*
X67922619Y-78044580D01*
X49566666Y-77139819D02*
X49566666Y-77854104D01*
X49566666Y-77854104D02*
X49519047Y-77996961D01*
X49519047Y-77996961D02*
X49423809Y-78092200D01*
X49423809Y-78092200D02*
X49280952Y-78139819D01*
X49280952Y-78139819D02*
X49185714Y-78139819D01*
X50566666Y-78139819D02*
X49995238Y-78139819D01*
X50280952Y-78139819D02*
X50280952Y-77139819D01*
X50280952Y-77139819D02*
X50185714Y-77282676D01*
X50185714Y-77282676D02*
X50090476Y-77377914D01*
X50090476Y-77377914D02*
X49995238Y-77425533D01*
X56733333Y-80729819D02*
X56400000Y-80253628D01*
X56161905Y-80729819D02*
X56161905Y-79729819D01*
X56161905Y-79729819D02*
X56542857Y-79729819D01*
X56542857Y-79729819D02*
X56638095Y-79777438D01*
X56638095Y-79777438D02*
X56685714Y-79825057D01*
X56685714Y-79825057D02*
X56733333Y-79920295D01*
X56733333Y-79920295D02*
X56733333Y-80063152D01*
X56733333Y-80063152D02*
X56685714Y-80158390D01*
X56685714Y-80158390D02*
X56638095Y-80206009D01*
X56638095Y-80206009D02*
X56542857Y-80253628D01*
X56542857Y-80253628D02*
X56161905Y-80253628D01*
X57685714Y-80729819D02*
X57114286Y-80729819D01*
X57400000Y-80729819D02*
X57400000Y-79729819D01*
X57400000Y-79729819D02*
X57304762Y-79872676D01*
X57304762Y-79872676D02*
X57209524Y-79967914D01*
X57209524Y-79967914D02*
X57114286Y-80015533D01*
D11*
%TO.C,D2*%
X65710000Y-83700000D02*
X65710000Y-81700000D01*
X65710000Y-83700000D02*
X61700000Y-83700000D01*
X65710000Y-81700000D02*
X61700000Y-81700000D01*
%TO.C,D1*%
X60990000Y-79225000D02*
X60990000Y-81225000D01*
X60990000Y-79225000D02*
X65000000Y-79225000D01*
X60990000Y-81225000D02*
X65000000Y-81225000D01*
%TO.C,U1*%
X59050000Y-84700000D02*
X58810000Y-84370000D01*
X59290000Y-84370000D01*
X59050000Y-84700000D01*
G36*
X59050000Y-84700000D02*
G01*
X58810000Y-84370000D01*
X59290000Y-84370000D01*
X59050000Y-84700000D01*
G37*
D10*
X62775000Y-87600000D02*
X62775000Y-87775000D01*
X62775000Y-84525000D02*
X62775000Y-84700000D01*
X59525000Y-87775000D02*
X62775000Y-87775000D01*
X59525000Y-87600000D02*
X59525000Y-87775000D01*
X59525000Y-84525000D02*
X62775000Y-84525000D01*
X59525000Y-84525000D02*
X59525000Y-84700000D01*
D11*
%TO.C,J3*%
X66495000Y-78685000D02*
X67875000Y-78685000D01*
X66495000Y-80065000D02*
X66495000Y-78685000D01*
X66495000Y-81335000D02*
X66495000Y-91605000D01*
X66495000Y-81335000D02*
X69255000Y-81335000D01*
X66495000Y-91605000D02*
X69255000Y-91605000D01*
X69255000Y-81335000D02*
X69255000Y-91605000D01*
%TO.C,J1*%
X48520000Y-78685000D02*
X49900000Y-78685000D01*
X48520000Y-80065000D02*
X48520000Y-78685000D01*
X48520000Y-81335000D02*
X48520000Y-91605000D01*
X48520000Y-81335000D02*
X51280000Y-81335000D01*
X48520000Y-91605000D02*
X51280000Y-91605000D01*
X51280000Y-81335000D02*
X51280000Y-91605000D01*
%TO.C,R1*%
X58090000Y-80960436D02*
X58090000Y-82414564D01*
X59910000Y-80960436D02*
X59910000Y-82414564D01*
%TD*%
M02*
